<svg width="80" height="80" viewBox="0 0 80 80" fill="none" xmlns="http://www.w3.org/2000/svg">
<g clip-path="url(#clip0_1_886)">
<path d="M40 80C17.9437 80 0 62.0562 0 40C0 17.9437 17.9437 0 40 0C62.0562 0 80 17.9437 80 40C80 62.0562 62.0562 80 40 80ZM40 5.77604C21.1292 5.77604 5.77604 21.1292 5.77604 40C5.77604 58.8708 21.1292 74.224 40 74.224C58.8708 74.224 74.224 58.8708 74.224 40C74.224 21.1292 58.8708 5.77604 40 5.77604Z" fill="black"/>
<path d="M30.9844 26.6667L38.9631 52.7084H39.2592L47.2379 26.6667H56.8889L44.8513 62.2223H33.371L21.3334 26.6667H30.9844Z" fill="black"/>
</g>
<defs>
<clipPath id="clip0_1_886">
<rect width="80" height="80" fill="white"/>
</clipPath>
</defs>
</svg>
